<svg xmlns="http://www.w3.org/2000/svg" viewBox="0 0 586 400" width="586" height="400" preserveAspectRatio="xMidYMid meet" style="width: 100%; height: 100%; transform: translate3d(0px, 0px, 0px); content-visibility: visible;"><defs><clipPath id="__lottie_element_43"><rect width="586" height="400" x="0" y="0"></rect></clipPath><linearGradient id="__lottie_element_47" spreadMethod="pad" gradientUnits="userSpaceOnUse" x1="-289.2019958496094" y1="0" x2="295.97900390625" y2="0"><stop offset="0%" stop-color="rgb(96,49,192)"></stop><stop offset="50%" stop-color="rgb(99,132,200)"></stop><stop offset="100%" stop-color="rgb(102,215,209)"></stop></linearGradient><linearGradient id="__lottie_element_51" spreadMethod="pad" gradientUnits="userSpaceOnUse" x1="-290.5660095214844" y1="0" x2="295.2829895019531" y2="0"><stop offset="0%" stop-color="rgb(255,81,84)"></stop><stop offset="50%" stop-color="rgb(175,65,138)"></stop><stop offset="100%" stop-color="rgb(96,49,192)"></stop></linearGradient><linearGradient id="__lottie_element_55" spreadMethod="pad" gradientUnits="userSpaceOnUse" x1="-289.2019958496094" y1="0" x2="295.97900390625" y2="0"><stop offset="0%" stop-color="rgb(96,49,192)"></stop><stop offset="50%" stop-color="rgb(99,132,200)"></stop><stop offset="100%" stop-color="rgb(102,215,209)"></stop></linearGradient><linearGradient id="__lottie_element_59" spreadMethod="pad" gradientUnits="userSpaceOnUse" x1="-258.75299072265625" y1="1.475000023841858" x2="263.82000732421875" y2="0"><stop offset="0%" stop-color="rgb(255,81,84)"></stop><stop offset="50%" stop-color="rgb(175,65,138)"></stop><stop offset="100%" stop-color="rgb(96,49,192)"></stop></linearGradient><linearGradient id="__lottie_element_63" spreadMethod="pad" gradientUnits="userSpaceOnUse" x1="-259.6910095214844" y1="0" x2="262.13800048828125" y2="0"><stop offset="0%" stop-color="rgb(96,49,192)"></stop><stop offset="50%" stop-color="rgb(99,132,200)"></stop><stop offset="100%" stop-color="rgb(102,215,209)"></stop></linearGradient><linearGradient id="__lottie_element_67" spreadMethod="pad" gradientUnits="userSpaceOnUse" x1="-258.75299072265625" y1="1.475000023841858" x2="263.82000732421875" y2="0"><stop offset="0%" stop-color="rgb(255,81,84)"></stop><stop offset="50%" stop-color="rgb(175,65,138)"></stop><stop offset="100%" stop-color="rgb(96,49,192)"></stop></linearGradient><clipPath id="__lottie_element_69"><path d="M0,0 L400,0 L400,400 L0,400z"></path></clipPath></defs><g clip-path="url(#__lottie_element_43)"><g clip-path="url(#__lottie_element_69)" transform="matrix(1.7000000476837158,0,0,1.7000000476837158,-47,-140)" opacity="1" style="display: block;"><g transform="matrix(0,0,0,0,95.83300018310547,95.83300018310547)" opacity="1" style="display: block;"><g opacity="1" transform="matrix(1,0,0,1,20.83300018310547,20.83300018310547)"><path fill="rgb(215,188,248)" fill-opacity="1" d=" M0,4.166999816894531 C2.3010001182556152,4.166999816894531 4.166999816894531,2.3010001182556152 4.166999816894531,0 C4.166999816894531,-2.302000045776367 2.3010001182556152,-4.166999816894531 0,-4.166999816894531 C-2.302000045776367,-4.166999816894531 -4.166999816894531,-2.302000045776367 -4.166999816894531,0 C-4.166999816894531,2.3010001182556152 -2.302000045776367,4.166999816894531 0,4.166999816894531z"></path></g></g><g transform="matrix(0,0,0,0,137.5019989013672,95.83300018310547)" opacity="1" style="display: block;"><g opacity="1" transform="matrix(1,0,0,1,62.50199890136719,20.83300018310547)"><path fill="rgb(237,225,251)" fill-opacity="1" d=" M0,4.166999816894531 C2.3010001182556152,4.166999816894531 4.166999816894531,2.3010001182556152 4.166999816894531,0 C4.166999816894531,-2.302000045776367 2.3010001182556152,-4.166999816894531 0,-4.166999816894531 C-2.302000045776367,-4.166999816894531 -4.166999816894531,-2.302000045776367 -4.166999816894531,0 C-4.166999816894531,2.3010001182556152 -2.302000045776367,4.166999816894531 0,4.166999816894531z"></path></g></g><g transform="matrix(0,0,0,0,179.16700744628906,95.83300018310547)" opacity="1" style="display: block;"><g opacity="1" transform="matrix(1,0,0,1,104.16699981689453,20.83300018310547)"><path fill="rgb(231,212,249)" fill-opacity="1" d=" M0,4.166999816894531 C2.302000045776367,4.166999816894531 4.166999816894531,2.3010001182556152 4.166999816894531,0 C4.166999816894531,-2.302000045776367 2.302000045776367,-4.166999816894531 0,-4.166999816894531 C-2.3010001182556152,-4.166999816894531 -4.166999816894531,-2.302000045776367 -4.166999816894531,0 C-4.166999816894531,2.3010001182556152 -2.3010001182556152,4.166999816894531 0,4.166999816894531z"></path></g></g><g transform="matrix(0,0,0,0,220.83299255371094,95.83300018310547)" opacity="1" style="display: block;"><g opacity="1" transform="matrix(1,0,0,1,145.83299255371094,20.83300018310547)"><path fill="rgb(246,239,252)" fill-opacity="1" d=" M0,4.166999816894531 C2.3010001182556152,4.166999816894531 4.166999816894531,2.3010001182556152 4.166999816894531,0 C4.166999816894531,-2.302000045776367 2.3010001182556152,-4.166999816894531 0,-4.166999816894531 C-2.302000045776367,-4.166999816894531 -4.166999816894531,-2.302000045776367 -4.166999816894531,0 C-4.166999816894531,2.3010001182556152 -2.302000045776367,4.166999816894531 0,4.166999816894531z"></path></g></g><g transform="matrix(0,0,0,0,262.5010070800781,95.83300018310547)" opacity="1" style="display: block;"><g opacity="1" transform="matrix(1,0,0,1,187.50100708007812,20.83300018310547)"><path fill="rgb(230,211,249)" fill-opacity="1" d=" M0,4.166999816894531 C2.3010001182556152,4.166999816894531 4.168000221252441,2.3010001182556152 4.168000221252441,0 C4.168000221252441,-2.302000045776367 2.3010001182556152,-4.166999816894531 0,-4.166999816894531 C-2.302000045776367,-4.166999816894531 -4.168000221252441,-2.302000045776367 -4.168000221252441,0 C-4.168000221252441,2.3010001182556152 -2.302000045776367,4.166999816894531 0,4.166999816894531z"></path></g></g><g transform="matrix(0,0,0,0,304.1669921875,95.83300018310547)" opacity="1" style="display: block;"><g opacity="1" transform="matrix(1,0,0,1,229.16700744628906,20.83300018310547)"><path fill="rgb(233,218,250)" fill-opacity="1" d=" M0,4.166999816894531 C2.302000045776367,4.166999816894531 4.166999816894531,2.3010001182556152 4.166999816894531,0 C4.166999816894531,-2.302000045776367 2.302000045776367,-4.166999816894531 0,-4.166999816894531 C-2.3010001182556152,-4.166999816894531 -4.166999816894531,-2.302000045776367 -4.166999816894531,0 C-4.166999816894531,2.3010001182556152 -2.3010001182556152,4.166999816894531 0,4.166999816894531z"></path></g></g><g transform="matrix(0,0,0,0,95.83300018310547,137.50100708007812)" opacity="1" style="display: block;"><g opacity="1" transform="matrix(1,0,0,1,20.83300018310547,62.500999450683594)"><path fill="rgb(235,222,250)" fill-opacity="1" d=" M0,4.168000221252441 C2.3010001182556152,4.168000221252441 4.166999816894531,2.302000045776367 4.166999816894531,0.0010000000474974513 C4.166999816894531,-2.3010001182556152 2.3010001182556152,-4.168000221252441 0,-4.168000221252441 C-2.302000045776367,-4.168000221252441 -4.166999816894531,-2.3010001182556152 -4.166999816894531,0.0010000000474974513 C-4.166999816894531,2.302000045776367 -2.302000045776367,4.168000221252441 0,4.168000221252441z"></path></g></g><g transform="matrix(0,0,0,0,137.5019989013672,137.50100708007812)" opacity="1" style="display: block;"><g opacity="1" transform="matrix(1,0,0,1,62.50199890136719,62.500999450683594)"><path fill="rgb(202,167,245)" fill-opacity="1" d=" M0,4.168000221252441 C2.3010001182556152,4.168000221252441 4.166999816894531,2.302000045776367 4.166999816894531,0.0010000000474974513 C4.166999816894531,-2.3010001182556152 2.3010001182556152,-4.168000221252441 0,-4.168000221252441 C-2.302000045776367,-4.168000221252441 -4.166999816894531,-2.3010001182556152 -4.166999816894531,0.0010000000474974513 C-4.166999816894531,2.302000045776367 -2.302000045776367,4.168000221252441 0,4.168000221252441z"></path></g></g><g transform="matrix(0,0,0,0,179.16700744628906,137.50100708007812)" opacity="1" style="display: block;"><g opacity="1" transform="matrix(1,0,0,1,104.16699981689453,62.500999450683594)"><path fill="rgb(255,253,255)" fill-opacity="1" d=" M0,4.168000221252441 C2.302000045776367,4.168000221252441 4.166999816894531,2.302000045776367 4.166999816894531,0.0010000000474974513 C4.166999816894531,-2.3010001182556152 2.302000045776367,-4.168000221252441 0,-4.168000221252441 C-2.3010001182556152,-4.168000221252441 -4.166999816894531,-2.3010001182556152 -4.166999816894531,0.0010000000474974513 C-4.166999816894531,2.302000045776367 -2.3010001182556152,4.168000221252441 0,4.168000221252441z"></path></g></g><g transform="matrix(0,0,0,0,220.83299255371094,137.50100708007812)" opacity="1" style="display: block;"><g opacity="1" transform="matrix(1,0,0,1,145.83299255371094,62.500999450683594)"><path fill="rgb(225,205,249)" fill-opacity="1" d=" M0,4.168000221252441 C2.3010001182556152,4.168000221252441 4.166999816894531,2.302000045776367 4.166999816894531,0.0010000000474974513 C4.166999816894531,-2.3010001182556152 2.3010001182556152,-4.168000221252441 0,-4.168000221252441 C-2.302000045776367,-4.168000221252441 -4.166999816894531,-2.3010001182556152 -4.166999816894531,0.0010000000474974513 C-4.166999816894531,2.302000045776367 -2.302000045776367,4.168000221252441 0,4.168000221252441z"></path></g></g><g transform="matrix(0,0,0,0,262.5010070800781,137.50100708007812)" opacity="1" style="display: block;"><g opacity="1" transform="matrix(1,0,0,1,187.50100708007812,62.500999450683594)"><path fill="rgb(202,166,245)" fill-opacity="1" d=" M0,4.168000221252441 C2.3010001182556152,4.168000221252441 4.168000221252441,2.302000045776367 4.168000221252441,0.0010000000474974513 C4.168000221252441,-2.3010001182556152 2.3010001182556152,-4.168000221252441 0,-4.168000221252441 C-2.302000045776367,-4.168000221252441 -4.168000221252441,-2.3010001182556152 -4.168000221252441,0.0010000000474974513 C-4.168000221252441,2.302000045776367 -2.302000045776367,4.168000221252441 0,4.168000221252441z"></path></g></g><g transform="matrix(0,0,0,0,304.1669921875,137.50100708007812)" opacity="1" style="display: block;"><g opacity="1" transform="matrix(1,0,0,1,229.16700744628906,62.500999450683594)"><path fill="rgb(239,230,251)" fill-opacity="1" d=" M0,4.168000221252441 C2.302000045776367,4.168000221252441 4.166999816894531,2.302000045776367 4.166999816894531,0.0010000000474974513 C4.166999816894531,-2.3010001182556152 2.302000045776367,-4.168000221252441 0,-4.168000221252441 C-2.3010001182556152,-4.168000221252441 -4.166999816894531,-2.3010001182556152 -4.166999816894531,0.0010000000474974513 C-4.166999816894531,2.302000045776367 -2.3010001182556152,4.168000221252441 0,4.168000221252441z"></path></g></g><g transform="matrix(0,0,0,0,95.83300018310547,179.16700744628906)" opacity="1" style="display: block;"><g opacity="1" transform="matrix(1,0,0,1,20.83300018310547,104.16699981689453)"><path fill="rgb(213,184,247)" fill-opacity="1" d=" M0,4.166999816894531 C2.3010001182556152,4.166999816894531 4.166999816894531,2.302000045776367 4.166999816894531,0 C4.166999816894531,-2.3010001182556152 2.3010001182556152,-4.166999816894531 0,-4.166999816894531 C-2.302000045776367,-4.166999816894531 -4.166999816894531,-2.3010001182556152 -4.166999816894531,0 C-4.166999816894531,2.302000045776367 -2.302000045776367,4.166999816894531 0,4.166999816894531z"></path></g></g><g transform="matrix(0,0,0,0,137.5019989013672,179.16700744628906)" opacity="1" style="display: block;"><g opacity="1" transform="matrix(1,0,0,1,62.50199890136719,104.16699981689453)"><path fill="rgb(208,174,246)" fill-opacity="1" d=" M0,4.166999816894531 C2.3010001182556152,4.166999816894531 4.166999816894531,2.302000045776367 4.166999816894531,0 C4.166999816894531,-2.3010001182556152 2.3010001182556152,-4.166999816894531 0,-4.166999816894531 C-2.302000045776367,-4.166999816894531 -4.166999816894531,-2.3010001182556152 -4.166999816894531,0 C-4.166999816894531,2.302000045776367 -2.302000045776367,4.166999816894531 0,4.166999816894531z"></path></g></g><g transform="matrix(0,0,0,0,179.16700744628906,179.16700744628906)" opacity="1" style="display: block;"><g opacity="1" transform="matrix(1,0,0,1,104.16699981689453,104.16699981689453)"><path fill="rgb(225,205,249)" fill-opacity="1" d=" M0,4.166999816894531 C2.302000045776367,4.166999816894531 4.166999816894531,2.302000045776367 4.166999816894531,0 C4.166999816894531,-2.3010001182556152 2.302000045776367,-4.166999816894531 0,-4.166999816894531 C-2.3010001182556152,-4.166999816894531 -4.166999816894531,-2.3010001182556152 -4.166999816894531,0 C-4.166999816894531,2.302000045776367 -2.3010001182556152,4.166999816894531 0,4.166999816894531z"></path></g></g><g transform="matrix(0,0,0,0,220.83299255371094,179.16700744628906)" opacity="1" style="display: block;"><g opacity="1" transform="matrix(1,0,0,1,145.83299255371094,104.16699981689453)"><path fill="rgb(250,248,253)" fill-opacity="1" d=" M0,4.166999816894531 C2.3010001182556152,4.166999816894531 4.166999816894531,2.302000045776367 4.166999816894531,0 C4.166999816894531,-2.3010001182556152 2.3010001182556152,-4.166999816894531 0,-4.166999816894531 C-2.302000045776367,-4.166999816894531 -4.166999816894531,-2.3010001182556152 -4.166999816894531,0 C-4.166999816894531,2.302000045776367 -2.302000045776367,4.166999816894531 0,4.166999816894531z"></path></g></g><g transform="matrix(0,0,0,0,262.5010070800781,179.16700744628906)" opacity="1" style="display: block;"><g opacity="1" transform="matrix(1,0,0,1,187.50100708007812,104.16699981689453)"><path fill="rgb(237,224,251)" fill-opacity="1" d=" M0,4.166999816894531 C2.3010001182556152,4.166999816894531 4.168000221252441,2.302000045776367 4.168000221252441,0 C4.168000221252441,-2.3010001182556152 2.3010001182556152,-4.166999816894531 0,-4.166999816894531 C-2.302000045776367,-4.166999816894531 -4.168000221252441,-2.3010001182556152 -4.168000221252441,0 C-4.168000221252441,2.302000045776367 -2.302000045776367,4.166999816894531 0,4.166999816894531z"></path></g></g><g transform="matrix(0,0,0,0,304.1669921875,179.16700744628906)" opacity="1" style="display: block;"><g opacity="1" transform="matrix(1,0,0,1,229.16700744628906,104.16699981689453)"><path fill="rgb(245,237,252)" fill-opacity="1" d=" M0,4.166999816894531 C2.302000045776367,4.166999816894531 4.166999816894531,2.302000045776367 4.166999816894531,0 C4.166999816894531,-2.3010001182556152 2.302000045776367,-4.166999816894531 0,-4.166999816894531 C-2.3010001182556152,-4.166999816894531 -4.166999816894531,-2.3010001182556152 -4.166999816894531,0 C-4.166999816894531,2.302000045776367 -2.3010001182556152,4.166999816894531 0,4.166999816894531z"></path></g></g><g transform="matrix(0,0,0,0,95.83300018310547,220.83299255371094)" opacity="1" style="display: block;"><g opacity="1" transform="matrix(1,0,0,1,20.83300018310547,145.83299255371094)"><path fill="rgb(217,189,248)" fill-opacity="1" d=" M0,4.166999816894531 C2.3010001182556152,4.166999816894531 4.166999816894531,2.3010001182556152 4.166999816894531,0 C4.166999816894531,-2.302000045776367 2.3010001182556152,-4.166999816894531 0,-4.166999816894531 C-2.302000045776367,-4.166999816894531 -4.166999816894531,-2.302000045776367 -4.166999816894531,0 C-4.166999816894531,2.3010001182556152 -2.302000045776367,4.166999816894531 0,4.166999816894531z"></path></g></g><g transform="matrix(0,0,0,0,137.5019989013672,220.83299255371094)" opacity="1" style="display: block;"><g opacity="1" transform="matrix(1,0,0,1,62.50199890136719,145.83299255371094)"><path fill="rgb(244,236,252)" fill-opacity="1" d=" M0,4.166999816894531 C2.3010001182556152,4.166999816894531 4.166999816894531,2.3010001182556152 4.166999816894531,0 C4.166999816894531,-2.302000045776367 2.3010001182556152,-4.166999816894531 0,-4.166999816894531 C-2.302000045776367,-4.166999816894531 -4.166999816894531,-2.302000045776367 -4.166999816894531,0 C-4.166999816894531,2.3010001182556152 -2.302000045776367,4.166999816894531 0,4.166999816894531z"></path></g></g><g transform="matrix(0,0,0,0,179.16700744628906,220.83299255371094)" opacity="1" style="display: block;"><g opacity="1" transform="matrix(1,0,0,1,104.16699981689453,145.83299255371094)"><path fill="rgb(211,181,247)" fill-opacity="1" d=" M0,4.166999816894531 C2.302000045776367,4.166999816894531 4.166999816894531,2.3010001182556152 4.166999816894531,0 C4.166999816894531,-2.302000045776367 2.302000045776367,-4.166999816894531 0,-4.166999816894531 C-2.3010001182556152,-4.166999816894531 -4.166999816894531,-2.302000045776367 -4.166999816894531,0 C-4.166999816894531,2.3010001182556152 -2.3010001182556152,4.166999816894531 0,4.166999816894531z"></path></g></g><g transform="matrix(0,0,0,0,220.83299255371094,220.83299255371094)" opacity="1" style="display: block;"><g opacity="1" transform="matrix(1,0,0,1,145.83299255371094,145.83299255371094)"><path fill="rgb(225,205,249)" fill-opacity="1" d=" M0,4.166999816894531 C2.3010001182556152,4.166999816894531 4.166999816894531,2.3010001182556152 4.166999816894531,0 C4.166999816894531,-2.302000045776367 2.3010001182556152,-4.166999816894531 0,-4.166999816894531 C-2.302000045776367,-4.166999816894531 -4.166999816894531,-2.302000045776367 -4.166999816894531,0 C-4.166999816894531,2.3010001182556152 -2.302000045776367,4.166999816894531 0,4.166999816894531z"></path></g></g><g transform="matrix(0,0,0,0,262.5010070800781,220.83299255371094)" opacity="1" style="display: block;"><g opacity="1" transform="matrix(1,0,0,1,187.50100708007812,145.83299255371094)"><path fill="rgb(234,220,250)" fill-opacity="1" d=" M0,4.166999816894531 C2.3010001182556152,4.166999816894531 4.168000221252441,2.3010001182556152 4.168000221252441,0 C4.168000221252441,-2.302000045776367 2.3010001182556152,-4.166999816894531 0,-4.166999816894531 C-2.302000045776367,-4.166999816894531 -4.168000221252441,-2.302000045776367 -4.168000221252441,0 C-4.168000221252441,2.3010001182556152 -2.302000045776367,4.166999816894531 0,4.166999816894531z"></path></g></g><g transform="matrix(0,0,0,0,304.1669921875,220.83299255371094)" opacity="1" style="display: block;"><g opacity="1" transform="matrix(1,0,0,1,229.16700744628906,145.83299255371094)"><path fill="rgb(213,184,247)" fill-opacity="1" d=" M0,4.166999816894531 C2.302000045776367,4.166999816894531 4.166999816894531,2.3010001182556152 4.166999816894531,0 C4.166999816894531,-2.302000045776367 2.302000045776367,-4.166999816894531 0,-4.166999816894531 C-2.3010001182556152,-4.166999816894531 -4.166999816894531,-2.302000045776367 -4.166999816894531,0 C-4.166999816894531,2.3010001182556152 -2.3010001182556152,4.166999816894531 0,4.166999816894531z"></path></g></g><g transform="matrix(0,0,0,0,95.83300018310547,262.5010070800781)" opacity="1" style="display: block;"><g opacity="1" transform="matrix(1,0,0,1,20.83300018310547,187.50100708007812)"><path fill="rgb(219,193,248)" fill-opacity="1" d=" M0,4.168000221252441 C2.3010001182556152,4.168000221252441 4.166999816894531,2.3010001182556152 4.166999816894531,0 C4.166999816894531,-2.302000045776367 2.3010001182556152,-4.168000221252441 0,-4.168000221252441 C-2.302000045776367,-4.168000221252441 -4.166999816894531,-2.302000045776367 -4.166999816894531,0 C-4.166999816894531,2.3010001182556152 -2.302000045776367,4.168000221252441 0,4.168000221252441z"></path></g></g><g transform="matrix(0,0,0,0,137.5019989013672,262.5010070800781)" opacity="1" style="display: block;"><g opacity="1" transform="matrix(1,0,0,1,62.50199890136719,187.50100708007812)"><path fill="rgb(232,215,250)" fill-opacity="1" d=" M0,4.168000221252441 C2.3010001182556152,4.168000221252441 4.166999816894531,2.3010001182556152 4.166999816894531,0 C4.166999816894531,-2.302000045776367 2.3010001182556152,-4.168000221252441 0,-4.168000221252441 C-2.302000045776367,-4.168000221252441 -4.166999816894531,-2.302000045776367 -4.166999816894531,0 C-4.166999816894531,2.3010001182556152 -2.302000045776367,4.168000221252441 0,4.168000221252441z"></path></g></g><g transform="matrix(0,0,0,0,179.16700744628906,262.5010070800781)" opacity="1" style="display: block;"><g opacity="1" transform="matrix(1,0,0,1,104.16699981689453,187.50100708007812)"><path fill="rgb(222,197,248)" fill-opacity="1" d=" M0,4.168000221252441 C2.302000045776367,4.168000221252441 4.166999816894531,2.3010001182556152 4.166999816894531,0 C4.166999816894531,-2.302000045776367 2.302000045776367,-4.168000221252441 0,-4.168000221252441 C-2.3010001182556152,-4.168000221252441 -4.166999816894531,-2.302000045776367 -4.166999816894531,0 C-4.166999816894531,2.3010001182556152 -2.3010001182556152,4.168000221252441 0,4.168000221252441z"></path></g></g><g transform="matrix(0,0,0,0,220.83299255371094,262.5010070800781)" opacity="1" style="display: block;"><g opacity="1" transform="matrix(1,0,0,1,145.83299255371094,187.50100708007812)"><path fill="rgb(223,200,248)" fill-opacity="1" d=" M0,4.168000221252441 C2.3010001182556152,4.168000221252441 4.166999816894531,2.3010001182556152 4.166999816894531,0 C4.166999816894531,-2.302000045776367 2.3010001182556152,-4.168000221252441 0,-4.168000221252441 C-2.302000045776367,-4.168000221252441 -4.166999816894531,-2.302000045776367 -4.166999816894531,0 C-4.166999816894531,2.3010001182556152 -2.302000045776367,4.168000221252441 0,4.168000221252441z"></path></g></g><g transform="matrix(0,0,0,0,262.5010070800781,262.5010070800781)" opacity="1" style="display: block;"><g opacity="1" transform="matrix(1,0,0,1,187.50100708007812,187.50100708007812)"><path fill="rgb(214,185,248)" fill-opacity="1" d=" M0,4.168000221252441 C2.3010001182556152,4.168000221252441 4.168000221252441,2.3010001182556152 4.168000221252441,0 C4.168000221252441,-2.302000045776367 2.3010001182556152,-4.168000221252441 0,-4.168000221252441 C-2.302000045776367,-4.168000221252441 -4.168000221252441,-2.302000045776367 -4.168000221252441,0 C-4.168000221252441,2.3010001182556152 -2.302000045776367,4.168000221252441 0,4.168000221252441z"></path></g></g><g transform="matrix(0,0,0,0,304.1669921875,262.5010070800781)" opacity="1" style="display: block;"><g opacity="1" transform="matrix(1,0,0,1,229.16700744628906,187.50100708007812)"><path fill="rgb(247,241,253)" fill-opacity="1" d=" M0,4.168000221252441 C2.302000045776367,4.168000221252441 4.166999816894531,2.3010001182556152 4.166999816894531,0 C4.166999816894531,-2.302000045776367 2.302000045776367,-4.168000221252441 0,-4.168000221252441 C-2.3010001182556152,-4.168000221252441 -4.166999816894531,-2.302000045776367 -4.166999816894531,0 C-4.166999816894531,2.3010001182556152 -2.3010001182556152,4.168000221252441 0,4.168000221252441z"></path></g></g><g transform="matrix(0,0,0,0,95.83300018310547,304.1669921875)" opacity="1" style="display: block;"><g opacity="1" transform="matrix(1,0,0,1,20.83300018310547,229.16700744628906)"><path fill="rgb(208,173,246)" fill-opacity="1" d=" M0,4.166999816894531 C2.3010001182556152,4.166999816894531 4.166999816894531,2.302000045776367 4.166999816894531,0 C4.166999816894531,-2.3010001182556152 2.3010001182556152,-4.166999816894531 0,-4.166999816894531 C-2.302000045776367,-4.166999816894531 -4.166999816894531,-2.3010001182556152 -4.166999816894531,0 C-4.166999816894531,2.302000045776367 -2.302000045776367,4.166999816894531 0,4.166999816894531z"></path></g></g><g transform="matrix(0,0,0,0,137.5019989013672,304.1669921875)" opacity="1" style="display: block;"><g opacity="1" transform="matrix(1,0,0,1,62.50199890136719,229.16700744628906)"><path fill="rgb(218,193,248)" fill-opacity="1" d=" M0,4.166999816894531 C2.3010001182556152,4.166999816894531 4.166999816894531,2.302000045776367 4.166999816894531,0 C4.166999816894531,-2.3010001182556152 2.3010001182556152,-4.166999816894531 0,-4.166999816894531 C-2.302000045776367,-4.166999816894531 -4.166999816894531,-2.3010001182556152 -4.166999816894531,0 C-4.166999816894531,2.302000045776367 -2.302000045776367,4.166999816894531 0,4.166999816894531z"></path></g></g><g transform="matrix(0.07149028033018112,0,0,0.07149028033018112,171.72007751464844,287.7837829589844)" opacity="1" style="display: block;"><g opacity="1" transform="matrix(1,0,0,1,104.16699981689453,229.16700744628906)"><path fill="rgb(235,223,251)" fill-opacity="1" d=" M0,4.166999816894531 C2.302000045776367,4.166999816894531 4.166999816894531,2.302000045776367 4.166999816894531,0 C4.166999816894531,-2.3010001182556152 2.302000045776367,-4.166999816894531 0,-4.166999816894531 C-2.3010001182556152,-4.166999816894531 -4.166999816894531,-2.3010001182556152 -4.166999816894531,0 C-4.166999816894531,2.302000045776367 -2.3010001182556152,4.166999816894531 0,4.166999816894531z"></path></g></g><g transform="matrix(0.2714594304561615,0,0,0.2714594304561615,181.24525451660156,241.9574432373047)" opacity="1" style="display: block;"><g opacity="1" transform="matrix(1,0,0,1,145.83299255371094,229.16700744628906)"><path fill="rgb(213,184,247)" fill-opacity="1" d=" M0,4.166999816894531 C2.3010001182556152,4.166999816894531 4.166999816894531,2.302000045776367 4.166999816894531,0 C4.166999816894531,-2.3010001182556152 2.3010001182556152,-4.166999816894531 0,-4.166999816894531 C-2.302000045776367,-4.166999816894531 -4.166999816894531,-2.3010001182556152 -4.166999816894531,0 C-4.166999816894531,2.302000045776367 -2.302000045776367,4.166999816894531 0,4.166999816894531z"></path></g></g><g transform="matrix(0.4715382754802704,0,0,0.4715382754802704,174.08709716796875,196.10598754882812)" opacity="1" style="display: block;"><g opacity="1" transform="matrix(1,0,0,1,187.50100708007812,229.16700744628906)"><path fill="rgb(220,195,248)" fill-opacity="1" d=" M0,4.166999816894531 C2.3010001182556152,4.166999816894531 4.168000221252441,2.302000045776367 4.168000221252441,0 C4.168000221252441,-2.3010001182556152 2.3010001182556152,-4.166999816894531 0,-4.166999816894531 C-2.302000045776367,-4.166999816894531 -4.168000221252441,-2.3010001182556152 -4.168000221252441,0 C-4.168000221252441,2.302000045776367 -2.302000045776367,4.166999816894531 0,4.166999816894531z"></path></g></g><g transform="matrix(0.6714422702789307,0,0,0.6714422702789307,150.29457092285156,150.29457092285156)" opacity="1" style="display: block;"><g opacity="1" transform="matrix(1,0,0,1,229.16700744628906,229.16700744628906)"><path fill="rgb(253,252,255)" fill-opacity="1" d=" M0,4.166999816894531 C2.302000045776367,4.166999816894531 4.166999816894531,2.302000045776367 4.166999816894531,0 C4.166999816894531,-2.3010001182556152 2.302000045776367,-4.166999816894531 0,-4.166999816894531 C-2.3010001182556152,-4.166999816894531 -4.166999816894531,-2.3010001182556152 -4.166999816894531,0 C-4.166999816894531,2.302000045776367 -2.3010001182556152,4.166999816894531 0,4.166999816894531z"></path></g></g></g><g transform="matrix(1,0,0,1,-247,-340)" opacity="1" style="display: block;"><g opacity="1" transform="matrix(1,0,0,1,540,540)"><path fill="url(#__lottie_element_67)" fill-opacity="1" d=" M161.229248046875,-131.52674865722656 C21.017019271850586,-131.52810668945312 -65.00746154785156,69.85346984863281 -161.22787475585938,69.85325622558594 C-199.79150390625,69.8542251586914 -231.06565856933594,38.59170150756836 -231.06568908691406,0.015436695888638496 C-231.06503295898438,-38.5621223449707 -199.79010009765625,-69.82259368896484 -161.22799682617188,-69.8219985961914 C-216.83799743652344,-69.8219985961914 -261.91900634765625,-24.740999221801758 -261.91900634765625,30.868000030517578 C-261.91900634765625,86.47799682617188 -216.83799743652344,131.55799865722656 -161.22799682617188,131.55799865722656 C-20.535999298095703,131.55799865722656 61.547000885009766,-69.8219985961914 161.22900390625,-69.8219985961914 C199.79100036621094,-69.8219985961914 231.05099487304688,-38.56100082397461 231.05099487304688,0 C231.05099487304688,38.5620002746582 199.79100036621094,69.8219985961914 161.22900390625,69.8219985961914 C216.82997131347656,69.82170867919922 261.9033508300781,24.749595642089844 261.9034423828125,-30.852310180664062 C261.90350341796875,-86.45105743408203 216.83364868164062,-131.526123046875 161.229248046875,-131.52674865722656z"></path></g></g><g transform="matrix(1,0,0,1,-247,-340)" opacity="1" style="display: block;"><g opacity="1" transform="matrix(1,0,0,1,540,540)"><path fill="url(#__lottie_element_63)" fill-opacity="1" d=" M161.22900390625,-131.55799865722656 C24.9733943939209,-133.73544311523438 -68.22860717773438,70.49549865722656 -160.23464965820312,70.0703353881836 C-198.79664611816406,69.89153289794922 -231.0500030517578,38.5620002746582 -231.0500030517578,0 C-231.0500030517578,-38.56100082397461 -199.7899932861328,-69.8219985961914 -161.22799682617188,-69.8219985961914 C-199.863525390625,-69.75048065185547 -231.4537353515625,-38.40859603881836 -231.12493896484375,0.0739399716258049 C-231.8262481689453,34.9694709777832 -203.58860778808594,70.40894317626953 -160.23464965820312,70.46656036376953 C-71.65811157226562,73.3890151977539 27.97452163696289,-134.8153533935547 161.22900390625,-131.16177368164062 C230.7926788330078,-129.8485565185547 263.284423828125,-70.03948211669922 261.8450622558594,-30.54572105407715 C259.77789306640625,26.05563735961914 216.63734436035156,69.99881744384766 161.22900390625,69.8219985961914 C216.83900451660156,69.8219985961914 261.91900634765625,24.742000579833984 261.91900634765625,-30.868000030517578 C261.91900634765625,-86.47799682617188 216.83204650878906,-130.6689453125 161.22900390625,-131.55799865722656z"></path></g></g><g style="display: none;" transform="matrix(1,0,0,1,-247,-340)" opacity="1"><g opacity="1" transform="matrix(1,0,0,1,540,540)"><path fill="url(#__lottie_element_59)" fill-opacity="1" d=" M161.22900390625,-131.55799865722656 C21.074922561645508,-131.60174560546875 -65.0942611694336,69.83553314208984 -161.20803833007812,69.82698822021484 C-199.77005004882812,69.82339477539062 -231.0500030517578,38.5620002746582 -231.0500030517578,0 C-231.0500030517578,-38.56100082397461 -199.7899932861328,-69.8219985961914 -161.22799682617188,-69.8219985961914 C-216.4969940185547,-69.82056427001953 -261.3069763183594,-25.015573501586914 -261.30035400390625,30.249366760253906 C-261.314453125,85.44322967529297 -216.5718231201172,130.32955932617188 -161.20803833007812,130.33071899414062 C-21.56300926208496,130.38941955566406 60.87255096435547,-71.12767028808594 161.22900390625,-71.05427551269531 C200.41380310058594,-71.02789306640625 231.69854736328125,-39.193382263183594 231.6696319580078,-0.6136435866355896 C231.6280975341797,38.31075668334961 200.12942504882812,69.82555389404297 161.22900390625,69.8219985961914 C216.83900451660156,69.8219985961914 261.91900634765625,24.742000579833984 261.91900634765625,-30.868000030517578 C261.91900634765625,-86.47799682617188 216.8388671875,-131.54014587402344 161.22900390625,-131.55799865722656z"></path></g></g><g transform="matrix(1,0,0,1,-247,-340)" opacity="1" style="display: block;"><g opacity="1" transform="matrix(1,0,0,1,540,540)"><path fill="url(#__lottie_element_55)" fill-opacity="1" d=" M-161.22900390625,-131.55799865722656 C-20.9950008392334,-131.55799865722656 65.02999877929688,69.8219985961914 161.22799682617188,69.8219985961914 C216.83799743652344,69.8219985961914 261.9179992675781,24.742000579833984 261.9179992675781,-30.868000030517578 C261.9179992675781,-86.47799682617188 216.83799743652344,-131.55799865722656 161.22799682617188,-131.55799865722656 C233.87783813476562,-131.5568389892578 292.77117919921875,-72.6656494140625 292.7715759277344,-0.015689756721258163 C292.7718505859375,72.62602996826172 233.88453674316406,131.52609252929688 161.22799682617188,131.52662658691406 C20.556365966796875,131.52645874023438 -61.520896911621094,-69.84891510009766 -161.22900390625,-69.85337829589844 C-216.8550262451172,-69.85321807861328 -261.935302734375,-24.75642967224121 -261.9346923828125,30.852563858032227 C-261.9337158203125,86.47953033447266 -216.83900451660156,131.55799865722656 -161.22900390625,131.55799865722656 C-233.88699340820312,131.55799865722656 -292.7869873046875,72.65799713134766 -292.7869873046875,0 C-292.7869873046875,-72.65699768066406 -233.88699340820312,-131.55799865722656 -161.22900390625,-131.55799865722656z"></path></g></g><g transform="matrix(1,0,0,1,-247,-340)" opacity="1" style="display: block;"><g opacity="1" transform="matrix(1,0,0,1,540,540)"><path fill="url(#__lottie_element_51)" fill-opacity="1" d=" M-161.22900390625,-70.9632339477539 C-59.740882873535156,-67.42887115478516 23.77589225769043,132.0836181640625 161.22799682617188,131.41012573242188 C248.78634643554688,130.5935821533203 293.786865234375,55.04732894897461 292.7120666503906,-0.0739399716258049 C291.6282958984375,-55.673011779785156 251.2697296142578,-129.01699829101562 161.22799682617188,-131.55799865722656 C233.88600158691406,-131.55799865722656 292.0052185058594,-71.0110092163086 292.7869873046875,0 C293.5866394042969,72.65303039550781 233.88600158691406,131.55799865722656 161.22799682617188,131.55799865722656 C20.53499984741211,131.55799865722656 -61.54800033569336,-69.8219985961914 -161.22900390625,-69.8219985961914 C-216.83900451660156,-69.8219985961914 -261.91900634765625,-24.740999221801758 -261.91900634765625,30.868000030517578 C-261.91900634765625,86.47799682617188 -216.83900451660156,131.55799865722656 -161.22900390625,131.55799865722656 C-217.1121826171875,130.75537109375 -260.63800048828125,90.13114929199219 -261.9929504394531,28.80734634399414 C-262.9495544433594,-14.63801097869873 -226.3007354736328,-68.91890716552734 -161.22900390625,-70.9632339477539z"></path></g></g><g style="display: none;" transform="matrix(1,0,0,1,-247,-340)" opacity="1"><g opacity="1" transform="matrix(1,0,0,1,540,540)"><path fill="url(#__lottie_element_47)" fill-opacity="1" d=" M-161.22900390625,-130.3406982421875 C-21.773380279541016,-130.26968383789062 64.20123291015625,71.07279205322266 161.22799682617188,71.05926513671875 C217.47982788085938,71.04286193847656 262.5582275390625,25.350814819335938 262.53662109375,-30.249366760253906 C262.5148620605469,-85.85914611816406 217.5297088623047,-131.5069580078125 161.22799682617188,-131.55799865722656 C233.88600158691406,-131.55799865722656 292.77130126953125,-72.62393188476562 292.7869873046875,0 C292.8030700683594,72.65789794921875 233.88600158691406,131.55799865722656 161.22799682617188,131.55799865722656 C20.53499984741211,131.55799865722656 -61.54800033569336,-69.8219985961914 -161.22900390625,-69.8219985961914 C-216.83900451660156,-69.8219985961914 -261.91900634765625,-24.740999221801758 -261.91900634765625,30.868000030517578 C-261.91900634765625,86.47799682617188 -216.83900451660156,131.55799865722656 -161.22900390625,131.55799865722656 C-233.5500030517578,131.5418701171875 -292.1411437988281,73.00902557373047 -292.1683654785156,0.5787208080291748 C-292.1875915527344,-71.49143981933594 -233.73460388183594,-130.29962158203125 -161.22900390625,-130.3406982421875z"></path></g></g></g></svg>